<svg enable-background="new 0 0 2500 884.6" viewBox="0 0 2500 884.6" xmlns="http://www.w3.org/2000/svg"><path d="m1876 0h42.7v42.7h-42.7z" fill="none"/><path d="m2500 332.2v378.3l-535.8 174.1v-378.3" fill="#d31f36"/><path d="m2411.8 0v361.2l-535.8 174v-361.1" fill="#0047b8"/><path d="m2175.5 660.4-1.9-1.1c-6.6 1.6-16.9 2.1-33.7 2.1-99.3 0-218.3-45.8-218.3-132.2 0-89 122.8-147.9 269-147.9 87.1 0 167.7 17.4 218.2 51.1 45.9 26.3 58.1 62.6 58.1 96.9-.9 41.5-30.9 76.3-66.5 106.3l-172.4 142.6h-205.3zm18.7-191.6c-50.6 0-95.6 21-95.6 52.1 0 25.3 32.9 53.2 95.6 53.2 58.1 0 95.6-24.2 95.6-51.6 0-35.8-50.7-53.7-95.6-53.7zm-194.9-128.8-77.8-80h-25.9v98.2h17.2v-85.6l83.5 85.6h20.1v-98.3h-17.2m266.4 9.7-27.4 71.8h-.4l-33.7-71.8h-14.9l-31.4 71.8h-.4l-29.5-71.8h-102.3v88.6h95.8v-9.6h-77.3v-32.4h55.6v-8.9h-55.5v-28.2h68.7l33.6 79.1h18.8l30.2-68.7 32.1 68.7h18.5l35.6-88.6m93.8 45.6c-7.6-3.8-17.2-5.5-27-6.8l-22.2-3.2c-13.9-1.9-26.8-4.1-26.8-14.1 0-9.7 17.7-14.1 31.7-14.1 15.8 0 33 6 36.3 15.7l16.8-2.7c-7.9-14.3-27.8-21.6-52.6-21.6-25.7 0-50.3 7.3-50.3 24.4 0 6.2 4.3 12.3 12 16.4 7.8 4.3 16.9 5.6 26.8 7l24.6 3.6c13 1.9 25.3 5.5 25.3 14.5 0 4.3-3.4 8.8-9.1 11.3-6.9 3.2-17.7 4.4-26.5 4.4-20.8 0-37.8-5.7-43.8-17.9l-16.7 2.2c9.9 17.2 29.9 25.2 60.1 25.2 13.4 0 27.8-1.6 38.6-6.4 10.8-5 16.6-12.2 16.6-20.2 0-7.1-4.6-13.1-13.8-17.7zm-353.4-176.2h76.9c11.9 0 24.1.6 33.9 5.2 10.6 4.9 16.8 13.2 16.8 21.5 0 10.7-10.6 19.7-26.6 22.1v.3c18.1 2.1 30.6 11 30.6 23.1 0 8.7-4.8 18.5-16.1 23.7-12.2 5.6-29.1 5.8-43.3 5.8h-72v-101.7m64.9 79.2c4.9 0 10.2.1 14.1-2 3.4-1.6 5.7-4.3 5.7-7.1 0-3.4-3-6.5-7.6-8-4.1-1.4-9.7-1.4-14-1.4h-19v18.3h20.9m-1.5-40c4.6 0 10.1.2 13.5-1.9 3-1.7 4.6-4.3 4.6-6.7 0-7.6-9.6-8.6-18.8-8.6h-18.9v17.2zm151.6 62.8c-1.2-3.4-1.7-6.9-1.7-10.5-9.1 8.8-22.2 12-38.3 12-21.8 0-40.8-7.7-40.8-22.8 0-12 14.5-20.1 30.7-23.3 14.9-3 30.7-4.1 46.1-4.7v-.6c0-6.8-2.7-9.5-13.7-9.5-9 0-16.5 2.1-17.8 8.5l-41.8-2.6c6.8-18.8 34.6-23.7 61-23.7 13.7 0 31.4 1.2 42.9 6.5 15.4 7 13.5 16.8 13.5 27.6v26.5c0 5.7.3 11.3 3.7 16.7zm-3.9-35.5c-11 .8-29.3 3-29.3 12.2 0 4.9 4.8 7 12 7 17.2 0 17.4-9.4 17.4-17.7z" fill="#fff"/><path d="m2351.4 245.5c-8.7 15.7-20.5 13.2-46.4 14.7l-23.3.3v-14.3h16.5c6.2 0 19.9.2 19.9-5.8 0-2.2-1.8-4.7-3-6.8l-41-68.6h49.3l19.2 40.4 20.5-40.4h33.4z" fill="#fff"/><path d="m0 1.1h42.7v42.7h-42.7z" fill="none"/><path d="m304.1 616.7 49.8-284.1h105l-80.6 458.4h-132l-91.1-283.6-49.9 283.6h-105l80.7-458.3h131.2m348.8 360.6h182.5l-17.8 97.7h-290.6l80.6-458.3h292.6l-17.7 97.5h-183l-13.1 74h168.6l-17.7 97.5h-168m877.6-269-209.3 458.3h-126l-11.2-258-117.5 258h-129.1l-20.4-458.3h110.9l11.7 311.6 143-311.6h79.4l13.2 311.6 143-311.6m261.7 355.8c8.1-3.3 14.3-7.7 18.4-13.1s6.7-11.4 7.9-17.9c1.1-6.5 1.6-13.1 1.6-19.6 0-10.5-3.6-18.3-10.8-23.6-7.2-5.2-20.5-7.8-39.7-7.8h-6.6c-47.7 0-82.5-7.3-104.6-21.9s-33.2-37.8-33.2-69.7c.1-4.8.3-9.7 1-14.7.6-5 1.4-10.7 2.3-16.7l3.9-20.9c8.3-45 26.5-77.8 54.8-98.6 28.2-20.7 69.3-31.1 123-31.1h156.2l-17.1 97.5h-154.9c-13.1 0-23.7 1.3-31.8 3.9s-14.3 6.4-18.7 11.1c-4.4 4.8-7.3 10.7-8.9 17.7-1.5 7-2.3 14.7-2.3 23 0 10 3.8 17.7 11.5 22.9s20.7 7.9 39 7.9h6.6c47.7 0 82.6 7.1 104.6 21.6 22.1 14.4 33.1 37.3 33.1 68.7 0 4.8-.3 9.9-1 15.4-.6 5.5-1.4 11.3-2.3 17.4l-3.8 21.6c-8.3 45-26.5 77.8-54.5 98.6-28 20.7-69.1 31.1-123.3 31.1h-163.4l17.1-97.6h162.2c14.4-.3 25.7-2 33.7-5.2m-1516.5-397.1 6.8-40.8h65.6c4.6 0 8.4-.4 11.3-1.3 3-.8 5.3-2 7-3.3 1.7-1.4 3-3 3.8-4.9.9-1.9 1.5-4 1.8-6.1.5-3 .9-5.8.9-8.4s-.6-4.7-1.8-6.6c-1.2-1.8-3.2-3.2-6.1-4.3-2.9-1-7-1.5-12.2-1.5h-4.3c-10.8 0-20.1-1-27.6-2.9-7.6-1.9-13.6-5-17.9-9.3-4.4-4.3-7.3-9.7-8.7-16.4-.7-3.4-1-6.8-.9-10.2 0-4.1.4-8.5 1.3-13.4l1.4-8.5c1.7-9.2 4.4-17.1 8.1-23.9 3.8-6.7 8.7-12.2 14.8-16.6 6.1-4.3 13.3-7.6 21.8-9.6 8.4-2.1 18-3.2 29-3.2h63.6l-7.1 40.8h-63.1c-4.9 0-8.9.4-11.9 1.2s-5.4 1.9-7 3.4c-1.7 1.5-3 3.4-3.6 5.6-.7 2.1-1.4 4.7-1.9 7.5-.5 2.9-.6 5.3-.3 7.5.3 2.1 1.2 3.8 2.6 5.3 1.5 1.5 3.5 2.6 6.4 3.2 2.8.7 6.4 1.1 11 1.1h4.4c10.8 0 19.9 1 27.5 2.9 7.5 1.9 13.5 5 17.9 9.2 4.5 4.3 7.4 9.7 8.7 16.4.7 3.1 1 6.6 1 10.5 0 4.1-.4 8.5-1.3 13.4l-1.4 9c-1.6 9.3-4.3 17.4-8.1 24.2s-8.7 12.5-14.9 16.9c-6.1 4.4-13.3 7.7-21.8 9.8-8.4 2.1-18 3.2-28.9 3.2h-66zm151.2 0 32.7-191h75.7c9.7 0 18.3 1 25.6 3 7.4 1.9 13.4 5.1 17.9 9.6 4.7 4.5 7.9 10.2 9.6 17.2.9 3.8 1.3 7.6 1.2 11.5 0 4.4-.4 9.1-1.3 14.2l-4.3 24.7c-3.2 18.8-10.8 32.5-22.9 41.4-12 8.8-28.9 13.2-50.6 13.4h-30.4l-9.6 56zm60.2-96.9h30.3c4.4 0 8.1-.4 10.9-1.2 2.9-.9 5.1-2 6.9-3.5 1.7-1.5 3.1-3.5 4-5.9.8-2.4 1.6-5.2 2.1-8.4l3.1-17.8c.3-2.1.5-4 .5-5.5 0-1.1 0-2-.1-2.7-.3-2.1-1.2-3.8-2.6-5s-3.3-2.1-5.8-2.6c-3-.5-6.1-.7-9.1-.7h-31.1l-9 53.4zm96 96.9 32.6-191h122.4l-7 40.7h-78.5l-5.3 30.9h72.5l-7 40.7h-72.5l-6.4 37.8h78.5l-6.9 40.7h-122.4zm151.2-50.8 15.4-89.5c1-6.1 3.1-12.2 6.4-18.3 3.4-6.3 8-11.8 13.5-16.3 5.8-4.8 13.1-8.7 21.8-11.7 8.6-3 18.9-4.5 30.6-4.5h54.8l-7 40.7h-50c-5.8 0-10.4.6-14 1.8s-6.3 2.8-8.3 4.9c-2 2-3.4 4.4-4.3 7-.9 2.7-1.6 5.5-2.1 8.3l-11.4 66.4c-.5 2.8-.8 5.5-.8 8 0 2.6.7 4.8 2 6.7 1.3 2 3.5 3.5 6.7 4.7 3.1 1.1 7.6 1.7 13.3 1.7h50l-7 40.8h-54.8c-11.8 0-21.5-1.5-29-4.5-7.7-3-13.5-6.9-17.6-11.8-4.1-4.6-6.8-10.2-8-16.2-.6-3.2-.9-6.4-1-9.6 0-2.8.2-5.7.8-8.6zm150.6-99.5 7-40.7h140.3l-7 40.7h-48.3l-25.7 150.3h-43.7l25.7-150.2h-48.3zm130.9 150.3 32.7-191h75.6c10.8 0 20 1.2 27.4 3.4 7.4 2.3 13.2 5.7 17.5 10.2s7 10.2 8.2 17.2c.5 3 .8 6.3.8 9.7 0 4.6-.4 9.5-1.3 14.8l-4.3 24.7c-3.8 23-14.8 38.8-32.9 47.4l25 63.6h-47.1l-21.4-56h-27.6l-9.6 56zm59.8-96.9h30.1c4.3 0 7.9-.4 10.8-1.2s5.3-2 7.1-3.5 3.3-3.5 4.3-5.9 1.7-5.2 2.3-8.4l3.1-17.8c.3-1.8.5-3.5.5-5.3 0-1.1-.1-2.1-.3-3-.3-1.9-1.2-3.7-2.6-4.9s-3.4-2.1-6-2.6c-3-.5-6.1-.7-9.2-.7h-30.9zm111.1 41.9 23.3-136h43.7l-23 134.5c-.2 1.4-.3 2.8-.3 4.3.1 1.9.4 3.7.8 5.3 1.1 2.7 2.8 4.9 5.1 6.7s5.2 3.1 8.8 3.8c3.6.9 7.7 1.3 12.2 1.3 4.7 0 9-.4 13-1.3s7.5-2.3 10.5-4.2c2.9-1.8 5.5-4.2 7.4-7s3.2-6.1 3.8-10l22.9-133.4h43.7l-23.8 138.1c-1.2 7.1-3.8 14.1-7.8 21.1s-9.5 13.2-16.4 18.8-15.4 10.1-25.4 13.5-21.6 5.2-34.9 5.2c-11.2 0-21.2-1.4-29.9-4.2s-15.8-6.8-21.3-11.9-9.4-11.4-11.6-18.6c-1.3-4.5-2-9.1-1.9-13.8.1-4 .4-8 1.1-12.2zm165.5 55 32.7-191h51.3l27.9 107.2 64.7-107.3h51.2l-32.6 191h-43.7l20.3-118.6-47.5 80.2h-40.4l-19.9-80.2-20.3 118.7z" fill="#1b4276"/></svg>